<?xml version="1.0" encoding="UTF-8" standalone="no"?>
<!DOCTYPE svg PUBLIC "-//W3C//DTD SVG 1.1//EN"
 "http://www.w3.org/Graphics/SVG/1.1/DTD/svg11.dtd">
<!-- Generated by graphviz version 2.40.1 (20161225.0304)
 -->
<!-- Title: G Pages: 1 -->
<svg width="377pt" height="177pt"
 viewBox="0.00 0.00 377.00 176.74" xmlns="http://www.w3.org/2000/svg" xmlns:xlink="http://www.w3.org/1999/xlink">
<g id="graph0" class="graph" transform="scale(1 1) rotate(0) translate(4 172.7401)">
<title>G</title>
<polygon fill="#ffffff" stroke="transparent" points="-4,4 -4,-172.7401 373,-172.7401 373,4 -4,4"/>
<g id="clust1" class="cluster">
<title>cluster_G</title>
<path fill="#808080" fill-opacity="0.094118" stroke="#000000" d="M20,-8C20,-8 349,-8 349,-8 355,-8 361,-14 361,-20 361,-20 361,-148.7401 361,-148.7401 361,-154.7401 355,-160.7401 349,-160.7401 349,-160.7401 20,-160.7401 20,-160.7401 14,-160.7401 8,-154.7401 8,-148.7401 8,-148.7401 8,-20 8,-20 8,-14 14,-8 20,-8"/>
</g>
<g id="clust2" class="cluster">
<title>cluster_codeML</title>
<path fill="#808080" fill-opacity="0.094118" stroke="#000000" d="M28,-16C28,-16 341,-16 341,-16 347,-16 353,-22 353,-28 353,-28 353,-96.7401 353,-96.7401 353,-102.7401 347,-108.7401 341,-108.7401 341,-108.7401 28,-108.7401 28,-108.7401 22,-108.7401 16,-102.7401 16,-96.7401 16,-96.7401 16,-28 16,-28 16,-22 22,-16 28,-16"/>
<text text-anchor="middle" x="184.5" y="-93.5401" font-family="Times,serif" font-size="14.00" fill="#000000">codeML</text>
</g>
<!-- codeML -->
<g id="node1" class="node">
<title>codeML</title>
<ellipse fill="#ffffff" fill-opacity="0.698039" stroke="#000000" cx="269" cy="-134.7401" rx="40.8928" ry="18"/>
<text text-anchor="middle" x="269" y="-131.0401" font-family="Times,serif" font-size="14.00" fill="#000000">codeML</text>
</g>
<!-- codeML__plot -->
<g id="node2" class="node">
<title>codeML__plot</title>
<ellipse fill="#fecccc" fill-opacity="0.698039" stroke="#000000" cx="269" cy="-50.8701" rx="75.8212" ry="26.7407"/>
<text text-anchor="middle" x="269" y="-54.6701" font-family="Times,serif" font-size="14.00" fill="#000000">plot</text>
<text text-anchor="middle" x="269" y="-39.6701" font-family="Times,serif" font-size="14.00" fill="#000000">(codeML.py:42)</text>
</g>
<!-- codeML&#45;&gt;codeML__plot -->
<g id="edge1" class="edge">
<title>codeML&#45;&gt;codeML__plot</title>
<path fill="none" stroke="#000000" d="M269,-116.5416C269,-108.1745 269,-97.9276 269,-88.0389"/>
<polygon fill="#000000" stroke="#000000" points="272.5001,-87.9573 269,-77.9573 265.5001,-87.9573 272.5001,-87.9573"/>
</g>
<!-- codeML__run -->
<g id="node3" class="node">
<title>codeML__run</title>
<ellipse fill="#fecccc" fill-opacity="0.698039" stroke="#000000" cx="100" cy="-50.8701" rx="75.8212" ry="26.7407"/>
<text text-anchor="middle" x="100" y="-54.6701" font-family="Times,serif" font-size="14.00" fill="#000000">run</text>
<text text-anchor="middle" x="100" y="-39.6701" font-family="Times,serif" font-size="14.00" fill="#000000">(codeML.py:12)</text>
</g>
</g>
</svg>
